<svg version="1.1" id="Layer_1" xmlns="http://www.w3.org/2000/svg" xmlns:xlink="http://www.w3.org/1999/xlink" x="0px" y="0px"
	 width="762" height="80" viewBox="140 220 762 80" enable-background="new 140 220 762 80" xml:space="preserve">
<path fill="#000000" opacity="1.000000" stroke="none" 
	d="
M470.297241,292.798004 
	C463.992859,286.339813 457.902985,280.179260 451.923859,273.912994 
	C450.074097,271.974335 448.065765,270.991364 445.343536,271.026031 
	C436.847778,271.134247 428.348419,271.186462 419.853760,271.051392 
	C416.139404,270.992340 414.831573,272.572754 414.919708,276.141968 
	C415.055420,281.635834 414.836700,287.137634 414.915924,292.633942 
	C414.978210,296.954590 412.307068,297.253723 408.967468,297.282898 
	C405.665680,297.311676 404.211823,296.347687 404.223663,292.705231 
	C404.291260,271.881653 404.152679,251.057297 404.050995,230.233368 
	C404.033966,226.747238 404.992859,224.638931 409.121796,224.552765 
	C426.595367,224.188080 444.066772,223.605789 461.531952,224.684952 
	C471.502472,225.301025 479.937347,231.620911 482.731232,240.347900 
	C485.645142,249.449600 482.824982,259.184906 475.607605,265.234772 
	C472.322784,267.988251 468.171326,268.866333 463.747864,270.870239 
	C470.979706,279.882690 480.155365,286.828827 487.839935,296.656372 
	C480.896271,297.185516 474.980530,299.055084 470.297241,292.798004 
M439.499969,260.912292 
	C445.821014,260.885254 452.144775,260.966370 458.462402,260.805267 
	C467.470581,260.575623 472.741272,255.626465 472.749359,247.626740 
	C472.757202,239.856003 467.258057,234.498779 458.429016,234.340454 
	C445.458191,234.107895 432.480347,234.291672 419.506409,234.186554 
	C416.335480,234.160873 414.922760,235.442017 414.960205,238.596191 
	C415.031281,244.583694 415.088409,250.573532 414.994232,256.559937 
	C414.943115,259.810394 416.421143,260.972656 419.537140,260.923676 
	C425.856628,260.824371 432.178894,260.906403 439.499969,260.912292 
z"/>
<path fill="#000000" opacity="1.000000" stroke="none" 
	d="
M727.871582,250.860260 
	C720.265198,259.495087 712.815308,267.798798 705.576782,276.282898 
	C702.529358,279.854675 700.233887,279.797211 697.217529,276.186554 
	C688.891846,266.220551 680.338806,256.444183 671.851379,246.613770 
	C670.489868,245.036804 669.003723,243.567459 667.004456,241.441345 
	C666.007263,246.032486 666.747070,249.620514 666.784302,253.208618 
	C666.918945,266.196167 666.798889,279.186462 666.946655,292.173798 
	C666.996643,296.560852 664.737061,297.278717 660.977417,297.331970 
	C656.816345,297.390900 655.953186,295.444305 655.968750,291.820038 
	C656.053772,272.003265 655.977905,252.185837 656.007141,232.368729 
	C656.011292,229.596481 655.451538,226.079422 658.854065,225.088654 
	C662.522644,224.020416 666.212769,224.068069 669.231079,227.698334 
	C677.957275,238.193665 686.935120,248.480850 695.887268,258.786316 
	C697.593079,260.750000 699.050415,263.069580 701.613220,264.143463 
	C703.833252,263.272247 705.020935,261.380676 706.434448,259.791321 
	C715.840393,249.215881 725.211792,238.609604 734.568909,227.990936 
	C736.258911,226.073105 737.941895,224.569977 740.826355,224.517242 
	C746.700989,224.409821 747.983459,225.262329 748.014893,231.231598 
	C748.120972,251.381439 748.014954,271.532532 748.156738,291.682007 
	C748.188293,296.163208 746.185852,297.245209 742.065491,297.321716 
	C737.489197,297.406738 736.897522,295.081848 736.922119,291.410706 
	C737.014893,277.589203 736.958740,263.766754 736.958374,249.944641 
	C736.958313,247.486725 736.958435,245.028809 736.958435,241.495117 
	C732.846680,244.401398 730.754395,247.787155 727.871582,250.860260 
z"/>
<path fill="#000000" opacity="1.000000" stroke="none" 
	d="
M596.759277,292.990784 
	C578.518372,300.443329 560.309570,300.426788 542.276184,294.295258 
	C528.112366,289.479462 520.268066,276.502258 520.293213,260.166107 
	C520.317871,244.117477 528.478638,231.691742 543.104980,226.666672 
	C559.845337,220.915283 576.910461,221.069168 593.599243,226.643158 
	C607.942078,231.433578 615.154846,242.484924 616.066711,257.244537 
	C617.024841,272.753479 611.595581,285.322723 596.759277,292.990784 
M533.136841,248.776779 
	C526.853516,267.935669 534.426086,283.140625 552.434326,287.148560 
	C562.804565,289.456573 573.290039,289.380585 583.658386,287.161194 
	C597.486450,284.201263 605.784119,274.448059 605.458557,260.690948 
	C605.172241,248.592453 601.021240,237.660690 583.516235,234.013229 
	C573.772461,231.982956 564.001831,231.788147 554.260071,233.672806 
	C545.288330,235.408524 537.342957,238.890228 533.136841,248.776779 
z"/>
<path fill="#000000" opacity="1.000000" stroke="none" 
	d="
M281.658356,247.000000 
	C281.658722,241.167053 281.845032,235.825485 281.599396,230.503860 
	C281.412567,226.456558 282.316711,224.474319 287.014679,224.458893 
	C291.951050,224.442703 292.309418,226.953918 292.268372,230.719650 
	C292.155731,241.051056 292.188660,251.384720 292.243011,261.717072 
	C292.331390,278.512512 298.488647,285.955261 314.945190,288.319672 
	C321.337677,289.238129 327.885010,289.285461 334.318848,287.769623 
	C346.850281,284.817169 353.399048,277.050415 353.708130,264.026276 
	C353.969055,253.032608 353.809937,242.029404 353.891205,231.030838 
	C353.936890,224.847092 355.396637,223.730225 361.414612,224.626877 
	C363.495758,224.936966 364.331970,225.909882 364.318237,227.877960 
	C364.224060,241.372543 365.090088,254.959061 363.804871,268.339050 
	C362.094330,286.145996 352.083374,295.397675 333.380951,297.925873 
	C324.319733,299.150787 315.076813,298.989563 306.084106,296.628815 
	C290.298645,292.484924 282.027466,281.928375 281.696564,265.498291 
	C281.575806,259.501007 281.665100,253.499527 281.658356,247.000000 
z"/>
<path fill="#000000" opacity="1.000000" stroke="none" 
	d="
M176.841736,238.869690 
	C179.781876,233.799713 182.489243,229.015930 185.310928,224.300537 
	C188.355164,219.213196 197.767792,219.315155 200.776123,224.463913 
	C206.154297,233.668732 211.317123,243.003616 216.876678,252.096619 
	C220.129639,257.417053 221.383850,265.080170 230.523788,264.619965 
	C227.042984,267.047394 223.346054,266.693542 219.932404,267.294312 
	C200.698517,270.679047 182.489136,276.695587 166.190491,287.736511 
	C163.854004,289.319275 161.265457,290.854675 159.591782,293.026978 
	C155.460983,298.388489 150.192398,297.417419 143.363647,296.799805 
	C154.785385,277.035980 165.722366,258.110992 176.841736,238.869690 
M185.338135,245.768250 
	C180.089233,255.016922 174.840347,264.265594 169.591446,273.514282 
	C183.210083,268.602417 196.869110,266.312347 211.339676,264.004883 
	C205.102570,253.180481 199.385620,243.258774 193.401321,232.873108 
	C189.661911,237.127808 188.081009,241.380768 185.338135,245.768250 
z"/>
<path fill="#000000" opacity="1.000000" stroke="none" 
	d="
M848.032227,297.252716 
	C835.818665,297.179382 836.953064,298.486359 836.935791,286.430084 
	C836.909180,267.777435 836.920227,249.124710 836.958374,230.472122 
	C836.969360,225.103790 840.056458,222.945557 845.335022,224.294739 
	C848.316650,225.056839 847.964539,227.351776 847.970093,229.463654 
	C848.014221,246.284103 848.016235,263.104645 848.037537,279.925171 
	C848.046387,286.914978 848.053467,286.921844 854.902405,286.920959 
	C867.892639,286.919281 880.884338,287.015472 893.872253,286.839142 
	C897.930969,286.784088 899.433838,288.116791 899.427002,292.298004 
	C899.420288,296.431915 897.660156,297.341949 893.992310,297.311798 
	C878.838013,297.187134 863.682068,297.254883 848.032227,297.252716 
z"/>
<path fill="#000000" opacity="1.000000" stroke="none" 
	d="
M800.388794,239.008148 
	C800.380859,256.830963 800.264343,274.156921 800.447388,291.479736 
	C800.492432,295.741608 799.289490,297.374969 794.816467,297.360565 
	C790.149902,297.345551 789.789551,294.883270 789.798157,291.317596 
	C789.847656,270.827850 789.892761,250.337036 789.710510,229.848633 
	C789.673218,225.658661 791.283325,224.256683 795.236145,224.221619 
	C799.418274,224.184509 800.808838,226.018295 800.418274,230.019577 
	C800.144653,232.823944 800.381714,235.678177 800.388794,239.008148 
z"/>
<path fill="#000000" opacity="1.000000" stroke="none" 
	d="
M222.335297,282.602875 
	C220.408264,278.778259 217.645828,275.756775 216.892990,271.776611 
	C224.600250,268.184448 226.735153,268.737701 230.754974,275.432587 
	C234.812912,282.190948 238.790054,288.997833 242.866089,295.890839 
	C234.532013,298.945770 230.952255,297.730133 227.209839,291.131958 
	C225.654846,288.390320 224.089340,285.654663 222.335297,282.602875 
z"/>
</svg>
